<svg width="26" height="26" viewBox="0 0 26 26" fill="none" xmlns="http://www.w3.org/2000/svg">
<path d="M21.3571 0H4.64284C2.07993 0.00304687 0.00304687 2.07993 0 4.64284V21.3571C0.00304687 23.92 2.07993 25.9969 4.64284 25.9999H21.3571C23.92 25.9969 25.9969 23.92 25.9999 21.3571V4.64284C25.9969 2.07993 23.92 0.00304687 21.3571 0ZM24.1428 21.3571C24.1428 22.8956 22.8956 24.1428 21.3571 24.1428H4.64284C3.10433 24.1428 1.85712 22.8956 1.85712 21.3571V4.64284C1.85712 3.10433 3.10433 1.85712 4.64284 1.85712H21.3571C22.8956 1.85712 24.1428 3.10433 24.1428 4.64284V21.3571Z" fill="black"/>
<path d="M17.6429 12.0714H13.9286V8.35713C13.9286 7.84427 13.5129 7.42854 13 7.42854C12.4872 7.42854 12.0714 7.84427 12.0714 8.35713V12.0714H8.35717C7.84432 12.0714 7.42858 12.4872 7.42858 13C7.42858 13.5129 7.84432 13.9285 8.35717 13.9285H12.0715V17.6428C12.0715 18.1557 12.4872 18.5714 13.0001 18.5714C13.5129 18.5714 13.9286 18.1556 13.9286 17.6428V13.9285H17.6429C18.1557 13.9285 18.5715 13.5128 18.5715 13C18.5715 12.4871 18.1557 12.0714 17.6429 12.0714Z" fill="black"/>
</svg>
